<?xml version="1.0" encoding="utf-8" standalone="no"?>
<!DOCTYPE svg PUBLIC "-//W3C//DTD SVG 1.1//EN"
  "http://www.w3.org/Graphics/SVG/1.1/DTD/svg11.dtd">
<svg xmlns:xlink="http://www.w3.org/1999/xlink" width="460.8pt" height="345.6pt" viewBox="0 0 460.8 345.6" xmlns="http://www.w3.org/2000/svg" version="1.1">
 <metadata>
  <rdf:RDF xmlns:dc="http://purl.org/dc/elements/1.1/" xmlns:cc="http://creativecommons.org/ns#" xmlns:rdf="http://www.w3.org/1999/02/22-rdf-syntax-ns#">
   <cc:Work>
    <dc:type rdf:resource="http://purl.org/dc/dcmitype/StillImage"/>
    <dc:date>2024-11-20T12:18:32.021047</dc:date>
    <dc:format>image/svg+xml</dc:format>
    <dc:creator>
     <cc:Agent>
      <dc:title>Matplotlib v3.9.2, https://matplotlib.org/</dc:title>
     </cc:Agent>
    </dc:creator>
   </cc:Work>
  </rdf:RDF>
 </metadata>
 <defs>
  <style type="text/css">*{stroke-linejoin: round; stroke-linecap: butt}</style>
 </defs>
 <g id="figure_1">
  <g id="patch_1">
   <path d="M 0 345.6 
L 460.8 345.6 
L 460.8 0 
L 0 0 
z
" style="fill: #ffffff"/>
  </g>
  <g id="axes_1">
   <g id="patch_2">
    <path d="M 57.6 307.584 
L 414.72 307.584 
L 414.72 41.472 
L 57.6 41.472 
z
" style="fill: #ffffff"/>
   </g>
   <g id="matplotlib.axis_1">
    <g id="xtick_1">
     <g id="line2d_1">
      <path d="M 57.6 307.584 
L 57.6 41.472 
" clip-path="url(#p89bc73a37a)" style="fill: none; stroke-dasharray: 0.8,1.32; stroke-dashoffset: 0; stroke: #000000; stroke-opacity: 0.7; stroke-width: 0.8"/>
     </g>
     <g id="line2d_2">
      <defs>
       <path id="mda2d9005dd" d="M 0 0 
L 0 3.5 
" style="stroke: #000000; stroke-width: 0.8"/>
      </defs>
      <g>
       <use xlink:href="#mda2d9005dd" x="57.6" y="307.584" style="stroke: #000000; stroke-width: 0.8"/>
      </g>
     </g>
     <g id="text_1">
      <!-- 0 -->
      <g transform="translate(54.41875 322.182437) scale(0.1 -0.1)">
       <defs>
        <path id="DejaVuSerif-30" d="M 2034 219 
Q 2513 219 2750 744 
Q 2988 1269 2988 2328 
Q 2988 3391 2750 3916 
Q 2513 4441 2034 4441 
Q 1556 4441 1318 3916 
Q 1081 3391 1081 2328 
Q 1081 1269 1318 744 
Q 1556 219 2034 219 
z
M 2034 -91 
Q 1275 -91 848 546 
Q 422 1184 422 2328 
Q 422 3475 848 4112 
Q 1275 4750 2034 4750 
Q 2797 4750 3222 4112 
Q 3647 3475 3647 2328 
Q 3647 1184 3222 546 
Q 2797 -91 2034 -91 
z
" transform="scale(0.015625)"/>
       </defs>
       <use xlink:href="#DejaVuSerif-30"/>
      </g>
     </g>
    </g>
    <g id="xtick_2">
     <g id="line2d_3">
      <path d="M 114.437413 307.584 
L 114.437413 41.472 
" clip-path="url(#p89bc73a37a)" style="fill: none; stroke-dasharray: 0.8,1.32; stroke-dashoffset: 0; stroke: #000000; stroke-opacity: 0.7; stroke-width: 0.8"/>
     </g>
     <g id="line2d_4">
      <g>
       <use xlink:href="#mda2d9005dd" x="114.437413" y="307.584" style="stroke: #000000; stroke-width: 0.8"/>
      </g>
     </g>
     <g id="text_2">
      <!-- 1 -->
      <g transform="translate(111.256163 322.182437) scale(0.1 -0.1)">
       <defs>
        <path id="DejaVuSerif-31" d="M 909 0 
L 909 331 
L 1722 331 
L 1722 4213 
L 781 3603 
L 781 4013 
L 1919 4750 
L 2350 4750 
L 2350 331 
L 3163 331 
L 3163 0 
L 909 0 
z
" transform="scale(0.015625)"/>
       </defs>
       <use xlink:href="#DejaVuSerif-31"/>
      </g>
     </g>
    </g>
    <g id="xtick_3">
     <g id="line2d_5">
      <path d="M 171.274827 307.584 
L 171.274827 41.472 
" clip-path="url(#p89bc73a37a)" style="fill: none; stroke-dasharray: 0.8,1.32; stroke-dashoffset: 0; stroke: #000000; stroke-opacity: 0.7; stroke-width: 0.8"/>
     </g>
     <g id="line2d_6">
      <g>
       <use xlink:href="#mda2d9005dd" x="171.274827" y="307.584" style="stroke: #000000; stroke-width: 0.8"/>
      </g>
     </g>
     <g id="text_3">
      <!-- 2 -->
      <g transform="translate(168.093577 322.182437) scale(0.1 -0.1)">
       <defs>
        <path id="DejaVuSerif-32" d="M 819 3553 
L 469 3553 
L 469 4384 
Q 803 4563 1142 4656 
Q 1481 4750 1806 4750 
Q 2534 4750 2956 4397 
Q 3378 4044 3378 3438 
Q 3378 2753 2422 1800 
Q 2347 1728 2309 1691 
L 1131 513 
L 3078 513 
L 3078 1088 
L 3444 1088 
L 3444 0 
L 434 0 
L 434 341 
L 1850 1753 
Q 2319 2222 2519 2614 
Q 2719 3006 2719 3438 
Q 2719 3909 2473 4175 
Q 2228 4441 1797 4441 
Q 1350 4441 1106 4219 
Q 863 3997 819 3553 
z
" transform="scale(0.015625)"/>
       </defs>
       <use xlink:href="#DejaVuSerif-32"/>
      </g>
     </g>
    </g>
    <g id="xtick_4">
     <g id="line2d_7">
      <path d="M 228.11224 307.584 
L 228.11224 41.472 
" clip-path="url(#p89bc73a37a)" style="fill: none; stroke-dasharray: 0.8,1.32; stroke-dashoffset: 0; stroke: #000000; stroke-opacity: 0.7; stroke-width: 0.8"/>
     </g>
     <g id="line2d_8">
      <g>
       <use xlink:href="#mda2d9005dd" x="228.11224" y="307.584" style="stroke: #000000; stroke-width: 0.8"/>
      </g>
     </g>
     <g id="text_4">
      <!-- 3 -->
      <g transform="translate(224.93099 322.182437) scale(0.1 -0.1)">
       <defs>
        <path id="DejaVuSerif-33" d="M 622 4469 
Q 988 4606 1323 4678 
Q 1659 4750 1953 4750 
Q 2638 4750 3022 4454 
Q 3406 4159 3406 3634 
Q 3406 3213 3140 2930 
Q 2875 2647 2388 2547 
Q 2963 2466 3280 2130 
Q 3597 1794 3597 1259 
Q 3597 606 3158 257 
Q 2719 -91 1894 -91 
Q 1528 -91 1179 -12 
Q 831 66 488 225 
L 488 1131 
L 838 1131 
Q 869 681 1141 450 
Q 1413 219 1906 219 
Q 2384 219 2661 495 
Q 2938 772 2938 1253 
Q 2938 1803 2653 2086 
Q 2369 2369 1819 2369 
L 1522 2369 
L 1522 2688 
L 1678 2688 
Q 2225 2688 2498 2914 
Q 2772 3141 2772 3597 
Q 2772 4006 2547 4223 
Q 2322 4441 1900 4441 
Q 1478 4441 1245 4241 
Q 1013 4041 972 3647 
L 622 3647 
L 622 4469 
z
" transform="scale(0.015625)"/>
       </defs>
       <use xlink:href="#DejaVuSerif-33"/>
      </g>
     </g>
    </g>
    <g id="xtick_5">
     <g id="line2d_9">
      <path d="M 284.949653 307.584 
L 284.949653 41.472 
" clip-path="url(#p89bc73a37a)" style="fill: none; stroke-dasharray: 0.8,1.32; stroke-dashoffset: 0; stroke: #000000; stroke-opacity: 0.7; stroke-width: 0.8"/>
     </g>
     <g id="line2d_10">
      <g>
       <use xlink:href="#mda2d9005dd" x="284.949653" y="307.584" style="stroke: #000000; stroke-width: 0.8"/>
      </g>
     </g>
     <g id="text_5">
      <!-- 4 -->
      <g transform="translate(281.768403 322.182437) scale(0.1 -0.1)">
       <defs>
        <path id="DejaVuSerif-34" d="M 2234 1581 
L 2234 4063 
L 641 1581 
L 2234 1581 
z
M 3609 0 
L 1484 0 
L 1484 331 
L 2234 331 
L 2234 1247 
L 197 1247 
L 197 1588 
L 2241 4750 
L 2859 4750 
L 2859 1581 
L 3750 1581 
L 3750 1247 
L 2859 1247 
L 2859 331 
L 3609 331 
L 3609 0 
z
" transform="scale(0.015625)"/>
       </defs>
       <use xlink:href="#DejaVuSerif-34"/>
      </g>
     </g>
    </g>
    <g id="xtick_6">
     <g id="line2d_11">
      <path d="M 341.787066 307.584 
L 341.787066 41.472 
" clip-path="url(#p89bc73a37a)" style="fill: none; stroke-dasharray: 0.8,1.32; stroke-dashoffset: 0; stroke: #000000; stroke-opacity: 0.7; stroke-width: 0.8"/>
     </g>
     <g id="line2d_12">
      <g>
       <use xlink:href="#mda2d9005dd" x="341.787066" y="307.584" style="stroke: #000000; stroke-width: 0.8"/>
      </g>
     </g>
     <g id="text_6">
      <!-- 5 -->
      <g transform="translate(338.605816 322.182437) scale(0.1 -0.1)">
       <defs>
        <path id="DejaVuSerif-35" d="M 3219 4666 
L 3219 4153 
L 1081 4153 
L 1081 2816 
Q 1244 2928 1461 2984 
Q 1678 3041 1947 3041 
Q 2703 3041 3140 2622 
Q 3578 2203 3578 1478 
Q 3578 738 3136 323 
Q 2694 -91 1894 -91 
Q 1572 -91 1234 -12 
Q 897 66 544 225 
L 544 1131 
L 897 1131 
Q 925 688 1179 453 
Q 1434 219 1894 219 
Q 2388 219 2653 544 
Q 2919 869 2919 1478 
Q 2919 2084 2655 2407 
Q 2391 2731 1894 2731 
Q 1613 2731 1398 2631 
Q 1184 2531 1019 2322 
L 750 2322 
L 750 4666 
L 3219 4666 
z
" transform="scale(0.015625)"/>
       </defs>
       <use xlink:href="#DejaVuSerif-35"/>
      </g>
     </g>
    </g>
    <g id="xtick_7">
     <g id="line2d_13">
      <path d="M 398.62448 307.584 
L 398.62448 41.472 
" clip-path="url(#p89bc73a37a)" style="fill: none; stroke-dasharray: 0.8,1.32; stroke-dashoffset: 0; stroke: #000000; stroke-opacity: 0.7; stroke-width: 0.8"/>
     </g>
     <g id="line2d_14">
      <g>
       <use xlink:href="#mda2d9005dd" x="398.62448" y="307.584" style="stroke: #000000; stroke-width: 0.8"/>
      </g>
     </g>
     <g id="text_7">
      <!-- 6 -->
      <g transform="translate(395.44323 322.182437) scale(0.1 -0.1)">
       <defs>
        <path id="DejaVuSerif-36" d="M 2094 219 
Q 2534 219 2771 542 
Q 3009 866 3009 1472 
Q 3009 2078 2771 2401 
Q 2534 2725 2094 2725 
Q 1647 2725 1412 2412 
Q 1178 2100 1178 1509 
Q 1178 888 1415 553 
Q 1653 219 2094 219 
z
M 1075 2569 
Q 1288 2803 1556 2918 
Q 1825 3034 2163 3034 
Q 2859 3034 3264 2615 
Q 3669 2197 3669 1472 
Q 3669 763 3233 336 
Q 2797 -91 2069 -91 
Q 1278 -91 853 498 
Q 428 1088 428 2181 
Q 428 3406 931 4078 
Q 1434 4750 2350 4750 
Q 2597 4750 2869 4703 
Q 3141 4656 3425 4563 
L 3425 3794 
L 3072 3794 
Q 3034 4109 2831 4275 
Q 2628 4441 2284 4441 
Q 1678 4441 1381 3981 
Q 1084 3522 1075 2569 
z
" transform="scale(0.015625)"/>
       </defs>
       <use xlink:href="#DejaVuSerif-36"/>
      </g>
     </g>
    </g>
   </g>
   <g id="matplotlib.axis_2">
    <g id="ytick_1">
     <g id="line2d_15">
      <path d="M 57.6 274.347973 
L 414.72 274.347973 
" clip-path="url(#p89bc73a37a)" style="fill: none; stroke-dasharray: 0.8,1.32; stroke-dashoffset: 0; stroke: #000000; stroke-opacity: 0.7; stroke-width: 0.8"/>
     </g>
     <g id="line2d_16">
      <defs>
       <path id="m9a01f04f79" d="M 0 0 
L -3.5 0 
" style="stroke: #000000; stroke-width: 0.8"/>
      </defs>
      <g>
       <use xlink:href="#m9a01f04f79" x="57.6" y="274.347973" style="stroke: #000000; stroke-width: 0.8"/>
      </g>
     </g>
     <g id="text_8">
      <!-- −0.75 -->
      <g transform="translate(19.954687 278.147192) scale(0.1 -0.1)">
       <defs>
        <path id="DejaVuSerif-2212" d="M 678 2259 
L 4684 2259 
L 4684 1753 
L 678 1753 
L 678 2259 
z
" transform="scale(0.015625)"/>
        <path id="DejaVuSerif-2e" d="M 603 325 
Q 603 500 722 622 
Q 841 744 1019 744 
Q 1191 744 1312 622 
Q 1434 500 1434 325 
Q 1434 153 1312 31 
Q 1191 -91 1019 -91 
Q 841 -91 722 29 
Q 603 150 603 325 
z
" transform="scale(0.015625)"/>
        <path id="DejaVuSerif-37" d="M 3609 4347 
L 1784 0 
L 1319 0 
L 3059 4153 
L 903 4153 
L 903 3578 
L 538 3578 
L 538 4666 
L 3609 4666 
L 3609 4347 
z
" transform="scale(0.015625)"/>
       </defs>
       <use xlink:href="#DejaVuSerif-2212"/>
       <use xlink:href="#DejaVuSerif-30" x="83.789062"/>
       <use xlink:href="#DejaVuSerif-2e" x="147.412109"/>
       <use xlink:href="#DejaVuSerif-37" x="179.199219"/>
       <use xlink:href="#DejaVuSerif-35" x="242.822266"/>
      </g>
     </g>
    </g>
    <g id="ytick_2">
     <g id="line2d_17">
      <path d="M 57.6 241.079115 
L 414.72 241.079115 
" clip-path="url(#p89bc73a37a)" style="fill: none; stroke-dasharray: 0.8,1.32; stroke-dashoffset: 0; stroke: #000000; stroke-opacity: 0.7; stroke-width: 0.8"/>
     </g>
     <g id="line2d_18">
      <g>
       <use xlink:href="#m9a01f04f79" x="57.6" y="241.079115" style="stroke: #000000; stroke-width: 0.8"/>
      </g>
     </g>
     <g id="text_9">
      <!-- −0.50 -->
      <g transform="translate(19.954687 244.878334) scale(0.1 -0.1)">
       <use xlink:href="#DejaVuSerif-2212"/>
       <use xlink:href="#DejaVuSerif-30" x="83.789062"/>
       <use xlink:href="#DejaVuSerif-2e" x="147.412109"/>
       <use xlink:href="#DejaVuSerif-35" x="179.199219"/>
       <use xlink:href="#DejaVuSerif-30" x="242.822266"/>
      </g>
     </g>
    </g>
    <g id="ytick_3">
     <g id="line2d_19">
      <path d="M 57.6 207.810258 
L 414.72 207.810258 
" clip-path="url(#p89bc73a37a)" style="fill: none; stroke-dasharray: 0.8,1.32; stroke-dashoffset: 0; stroke: #000000; stroke-opacity: 0.7; stroke-width: 0.8"/>
     </g>
     <g id="line2d_20">
      <g>
       <use xlink:href="#m9a01f04f79" x="57.6" y="207.810258" style="stroke: #000000; stroke-width: 0.8"/>
      </g>
     </g>
     <g id="text_10">
      <!-- −0.25 -->
      <g transform="translate(19.954687 211.609476) scale(0.1 -0.1)">
       <use xlink:href="#DejaVuSerif-2212"/>
       <use xlink:href="#DejaVuSerif-30" x="83.789062"/>
       <use xlink:href="#DejaVuSerif-2e" x="147.412109"/>
       <use xlink:href="#DejaVuSerif-32" x="179.199219"/>
       <use xlink:href="#DejaVuSerif-35" x="242.822266"/>
      </g>
     </g>
    </g>
    <g id="ytick_4">
     <g id="line2d_21">
      <path d="M 57.6 174.5414 
L 414.72 174.5414 
" clip-path="url(#p89bc73a37a)" style="fill: none; stroke-dasharray: 0.8,1.32; stroke-dashoffset: 0; stroke: #000000; stroke-opacity: 0.7; stroke-width: 0.8"/>
     </g>
     <g id="line2d_22">
      <g>
       <use xlink:href="#m9a01f04f79" x="57.6" y="174.5414" style="stroke: #000000; stroke-width: 0.8"/>
      </g>
     </g>
     <g id="text_11">
      <!-- 0.00 -->
      <g transform="translate(28.334375 178.340619) scale(0.1 -0.1)">
       <use xlink:href="#DejaVuSerif-30"/>
       <use xlink:href="#DejaVuSerif-2e" x="63.623047"/>
       <use xlink:href="#DejaVuSerif-30" x="95.410156"/>
       <use xlink:href="#DejaVuSerif-30" x="159.033203"/>
      </g>
     </g>
    </g>
    <g id="ytick_5">
     <g id="line2d_23">
      <path d="M 57.6 141.272542 
L 414.72 141.272542 
" clip-path="url(#p89bc73a37a)" style="fill: none; stroke-dasharray: 0.8,1.32; stroke-dashoffset: 0; stroke: #000000; stroke-opacity: 0.7; stroke-width: 0.8"/>
     </g>
     <g id="line2d_24">
      <g>
       <use xlink:href="#m9a01f04f79" x="57.6" y="141.272542" style="stroke: #000000; stroke-width: 0.8"/>
      </g>
     </g>
     <g id="text_12">
      <!-- 0.25 -->
      <g transform="translate(28.334375 145.071761) scale(0.1 -0.1)">
       <use xlink:href="#DejaVuSerif-30"/>
       <use xlink:href="#DejaVuSerif-2e" x="63.623047"/>
       <use xlink:href="#DejaVuSerif-32" x="95.410156"/>
       <use xlink:href="#DejaVuSerif-35" x="159.033203"/>
      </g>
     </g>
    </g>
    <g id="ytick_6">
     <g id="line2d_25">
      <path d="M 57.6 108.003685 
L 414.72 108.003685 
" clip-path="url(#p89bc73a37a)" style="fill: none; stroke-dasharray: 0.8,1.32; stroke-dashoffset: 0; stroke: #000000; stroke-opacity: 0.7; stroke-width: 0.8"/>
     </g>
     <g id="line2d_26">
      <g>
       <use xlink:href="#m9a01f04f79" x="57.6" y="108.003685" style="stroke: #000000; stroke-width: 0.8"/>
      </g>
     </g>
     <g id="text_13">
      <!-- 0.50 -->
      <g transform="translate(28.334375 111.802904) scale(0.1 -0.1)">
       <use xlink:href="#DejaVuSerif-30"/>
       <use xlink:href="#DejaVuSerif-2e" x="63.623047"/>
       <use xlink:href="#DejaVuSerif-35" x="95.410156"/>
       <use xlink:href="#DejaVuSerif-30" x="159.033203"/>
      </g>
     </g>
    </g>
    <g id="ytick_7">
     <g id="line2d_27">
      <path d="M 57.6 74.734827 
L 414.72 74.734827 
" clip-path="url(#p89bc73a37a)" style="fill: none; stroke-dasharray: 0.8,1.32; stroke-dashoffset: 0; stroke: #000000; stroke-opacity: 0.7; stroke-width: 0.8"/>
     </g>
     <g id="line2d_28">
      <g>
       <use xlink:href="#m9a01f04f79" x="57.6" y="74.734827" style="stroke: #000000; stroke-width: 0.8"/>
      </g>
     </g>
     <g id="text_14">
      <!-- 0.75 -->
      <g transform="translate(28.334375 78.534046) scale(0.1 -0.1)">
       <use xlink:href="#DejaVuSerif-30"/>
       <use xlink:href="#DejaVuSerif-2e" x="63.623047"/>
       <use xlink:href="#DejaVuSerif-37" x="95.410156"/>
       <use xlink:href="#DejaVuSerif-35" x="159.033203"/>
      </g>
     </g>
    </g>
   </g>
   <g id="line2d_29">
    <path d="M 57.6 96.321625 
L 61.207273 89.650869 
L 64.814545 83.321938 
L 68.421818 77.360315 
L 72.029091 71.790006 
L 75.636364 66.633441 
L 79.243636 61.911383 
L 82.850909 57.642846 
L 86.458182 53.845019 
L 90.065455 50.533193 
L 93.672727 47.720705 
L 97.28 45.418879 
L 100.887273 43.636983 
L 104.494545 42.382194 
L 108.101818 41.659563 
L 111.709091 41.472 
L 115.316364 41.820261 
L 118.923636 42.702943 
L 122.530909 44.116491 
L 126.138182 46.055215 
L 129.745455 48.511308 
L 133.352727 51.474879 
L 136.96 54.933996 
L 140.567273 58.874729 
L 144.174545 63.281211 
L 147.781818 68.135699 
L 151.389091 73.418645 
L 154.996364 79.108777 
L 158.603636 85.183182 
L 162.210909 91.617401 
L 165.818182 98.385526 
L 169.425455 105.460303 
L 173.032727 112.813246 
L 176.64 120.414746 
L 180.247273 128.234195 
L 183.854545 136.240107 
L 187.461818 144.400245 
L 191.069091 152.681751 
L 194.676364 161.051277 
L 198.283636 169.475124 
L 201.890909 177.919371 
L 205.498182 186.350016 
L 209.105455 194.733111 
L 212.712727 203.034902 
L 216.32 211.22196 
L 219.927273 219.261318 
L 223.534545 227.120604 
L 227.141818 234.768173 
L 230.749091 242.17323 
L 234.356364 249.305957 
L 237.963636 256.137633 
L 241.570909 262.640751 
L 245.178182 268.789123 
L 248.785455 274.557994 
L 252.392727 279.924132 
L 256 284.865932 
L 259.607273 289.363493 
L 263.214545 293.398707 
L 266.821818 296.955324 
L 270.429091 300.019024 
L 274.036364 302.577469 
L 277.643636 304.620358 
L 281.250909 306.139466 
L 284.858182 307.128674 
L 288.465455 307.584 
L 292.072727 307.503611 
L 295.68 306.887829 
L 299.287273 305.739136 
L 302.894545 304.062155 
L 306.501818 301.86364 
L 310.109091 299.152443 
L 313.716364 295.939482 
L 317.323636 292.237693 
L 320.930909 288.061983 
L 324.538182 283.429165 
L 328.145455 278.357895 
L 331.752727 272.868593 
L 335.36 266.983362 
L 338.967273 260.725899 
L 342.574545 254.121402 
L 346.181818 247.196464 
L 349.789091 239.978971 
L 353.396364 232.497983 
L 357.003636 224.783624 
L 360.610909 216.866958 
L 364.218182 208.779861 
L 367.825455 200.554899 
L 371.432727 192.225189 
L 375.04 183.824273 
L 378.647273 175.385978 
L 382.254545 166.944282 
L 385.861818 158.533177 
L 389.469091 150.186532 
L 393.076364 141.937955 
L 396.683636 133.82066 
L 400.290909 125.867334 
L 403.898182 118.110001 
L 407.505455 110.579897 
L 411.112727 103.307344 
L 414.72 96.321625 
" clip-path="url(#p89bc73a37a)" style="fill: none; stroke: #003049; stroke-width: 1.5; stroke-linecap: square"/>
   </g>
   <g id="line2d_30">
    <path d="M 57.6 160.53346 
L 61.207273 160.561663 
L 64.814545 160.646157 
L 68.421818 160.786602 
L 72.029091 160.982433 
L 75.636364 161.232861 
L 79.243636 161.536878 
L 82.850909 161.893259 
L 86.458182 162.30057 
L 90.065455 162.757171 
L 93.672727 163.261223 
L 97.28 163.810695 
L 100.887273 164.403377 
L 104.494545 165.036881 
L 108.101818 165.708656 
L 111.709091 166.415998 
L 115.316364 167.156057 
L 118.923636 167.925855 
L 122.530909 168.722291 
L 126.138182 169.542159 
L 129.745455 170.382157 
L 133.352727 171.238903 
L 136.96 172.108947 
L 140.567273 172.988785 
L 144.174545 173.874875 
L 147.781818 174.76365 
L 151.389091 175.651529 
L 154.996364 176.534938 
L 158.603636 177.41032 
L 162.210909 178.274149 
L 165.818182 179.122948 
L 169.425455 179.953299 
L 173.032727 180.761859 
L 176.64 181.54537 
L 180.247273 182.300679 
L 183.854545 183.024744 
L 187.461818 183.71465 
L 191.069091 184.367618 
L 194.676364 184.98102 
L 198.283636 185.552385 
L 201.890909 186.079412 
L 205.498182 186.55998 
L 209.105455 186.992154 
L 212.712727 187.374192 
L 216.32 187.704558 
L 219.927273 187.98192 
L 223.534545 188.205162 
L 227.141818 188.373385 
L 230.749091 188.485911 
L 234.356364 188.542288 
L 237.963636 188.542288 
L 241.570909 188.485911 
L 245.178182 188.373385 
L 248.785455 188.205162 
L 252.392727 187.98192 
L 256 187.704558 
L 259.607273 187.374192 
L 263.214545 186.992154 
L 266.821818 186.55998 
L 270.429091 186.079412 
L 274.036364 185.552385 
L 277.643636 184.98102 
L 281.250909 184.367618 
L 284.858182 183.71465 
L 288.465455 183.024744 
L 292.072727 182.300679 
L 295.68 181.54537 
L 299.287273 180.761859 
L 302.894545 179.953299 
L 306.501818 179.122948 
L 310.109091 178.274149 
L 313.716364 177.41032 
L 317.323636 176.534938 
L 320.930909 175.651529 
L 324.538182 174.76365 
L 328.145455 173.874875 
L 331.752727 172.988785 
L 335.36 172.108947 
L 338.967273 171.238903 
L 342.574545 170.382157 
L 346.181818 169.542159 
L 349.789091 168.722291 
L 353.396364 167.925855 
L 357.003636 167.156057 
L 360.610909 166.415998 
L 364.218182 165.708656 
L 367.825455 165.036881 
L 371.432727 164.403377 
L 375.04 163.810695 
L 378.647273 163.261223 
L 382.254545 162.757171 
L 385.861818 162.30057 
L 389.469091 161.893259 
L 393.076364 161.536878 
L 396.683636 161.232861 
L 400.290909 160.982433 
L 403.898182 160.786602 
L 407.505455 160.646157 
L 411.112727 160.561663 
L 414.72 160.53346 
" clip-path="url(#p89bc73a37a)" style="fill: none; stroke: #d62828; stroke-width: 1.5; stroke-linecap: square"/>
   </g>
   <g id="patch_3">
    <path d="M 57.6 307.584 
L 57.6 41.472 
" style="fill: none; stroke: #000000; stroke-width: 0.8; stroke-linejoin: miter; stroke-linecap: square"/>
   </g>
   <g id="patch_4">
    <path d="M 57.6 307.584 
L 414.72 307.584 
" style="fill: none; stroke: #000000; stroke-width: 0.8; stroke-linejoin: miter; stroke-linecap: square"/>
   </g>
   <g id="legend_1">
    <g id="line2d_31">
     <path d="M 312.505938 54.570437 
L 322.505938 54.570437 
L 332.505938 54.570437 
" style="fill: none; stroke: #003049; stroke-width: 1.5; stroke-linecap: square"/>
    </g>
    <g id="text_15">
     <!-- sin(x + 0.63) -->
     <g transform="translate(340.505938 58.070437) scale(0.1 -0.1)">
      <defs>
       <path id="DejaVuSerif-73" d="M 359 184 
L 359 959 
L 691 959 
Q 703 588 923 403 
Q 1144 219 1575 219 
Q 1963 219 2166 364 
Q 2369 509 2369 788 
Q 2369 1006 2220 1140 
Q 2072 1275 1594 1428 
L 1178 1569 
Q 750 1706 558 1912 
Q 366 2119 366 2438 
Q 366 2894 700 3153 
Q 1034 3413 1625 3413 
Q 1888 3413 2178 3344 
Q 2469 3275 2778 3144 
L 2778 2419 
L 2447 2419 
Q 2434 2741 2221 2922 
Q 2009 3103 1644 3103 
Q 1281 3103 1095 2975 
Q 909 2847 909 2591 
Q 909 2381 1050 2254 
Q 1191 2128 1613 1997 
L 2069 1856 
Q 2541 1709 2748 1489 
Q 2956 1269 2956 922 
Q 2956 450 2595 179 
Q 2234 -91 1600 -91 
Q 1278 -91 972 -22 
Q 666 47 359 184 
z
" transform="scale(0.015625)"/>
       <path id="DejaVuSerif-69" d="M 622 4353 
Q 622 4497 726 4603 
Q 831 4709 978 4709 
Q 1122 4709 1226 4603 
Q 1331 4497 1331 4353 
Q 1331 4206 1228 4103 
Q 1125 4000 978 4000 
Q 831 4000 726 4103 
Q 622 4206 622 4353 
z
M 1356 331 
L 1900 331 
L 1900 0 
L 231 0 
L 231 331 
L 781 331 
L 781 2988 
L 231 2988 
L 231 3322 
L 1356 3322 
L 1356 331 
z
" transform="scale(0.015625)"/>
       <path id="DejaVuSerif-6e" d="M 263 0 
L 263 331 
L 781 331 
L 781 2988 
L 231 2988 
L 231 3322 
L 1356 3322 
L 1356 2731 
Q 1516 3069 1770 3241 
Q 2025 3413 2363 3413 
Q 2913 3413 3172 3097 
Q 3431 2781 3431 2113 
L 3431 331 
L 3944 331 
L 3944 0 
L 2356 0 
L 2356 331 
L 2853 331 
L 2853 1931 
Q 2853 2541 2703 2767 
Q 2553 2994 2175 2994 
Q 1775 2994 1565 2701 
Q 1356 2409 1356 1850 
L 1356 331 
L 1856 331 
L 1856 0 
L 263 0 
z
" transform="scale(0.015625)"/>
       <path id="DejaVuSerif-28" d="M 2041 -997 
Q 1281 -656 893 83 
Q 506 822 506 1931 
Q 506 3044 893 3783 
Q 1281 4522 2041 4863 
L 2041 4556 
Q 1559 4225 1350 3623 
Q 1141 3022 1141 1931 
Q 1141 844 1350 242 
Q 1559 -359 2041 -691 
L 2041 -997 
z
" transform="scale(0.015625)"/>
       <path id="DejaVuSerif-78" d="M 1863 2028 
L 2559 2988 
L 2113 2988 
L 2113 3322 
L 3391 3322 
L 3391 2988 
L 2950 2988 
L 2059 1759 
L 3097 331 
L 3531 331 
L 3531 0 
L 1997 0 
L 1997 331 
L 2419 331 
L 1697 1325 
L 972 331 
L 1403 331 
L 1403 0 
L 141 0 
L 141 331 
L 581 331 
L 1497 1594 
L 488 2988 
L 78 2988 
L 78 3322 
L 1563 3322 
L 1563 2988 
L 1166 2988 
L 1863 2028 
z
" transform="scale(0.015625)"/>
       <path id="DejaVuSerif-20" transform="scale(0.015625)"/>
       <path id="DejaVuSerif-2b" d="M 2931 4013 
L 2931 2259 
L 4684 2259 
L 4684 1753 
L 2931 1753 
L 2931 0 
L 2431 0 
L 2431 1753 
L 678 1753 
L 678 2259 
L 2431 2259 
L 2431 4013 
L 2931 4013 
z
" transform="scale(0.015625)"/>
       <path id="DejaVuSerif-29" d="M 453 -997 
L 453 -691 
Q 934 -359 1145 242 
Q 1356 844 1356 1931 
Q 1356 3022 1145 3623 
Q 934 4225 453 4556 
L 453 4863 
Q 1216 4522 1603 3783 
Q 1991 3044 1991 1931 
Q 1991 822 1603 83 
Q 1216 -656 453 -997 
z
" transform="scale(0.015625)"/>
      </defs>
      <use xlink:href="#DejaVuSerif-73"/>
      <use xlink:href="#DejaVuSerif-69" x="51.318359"/>
      <use xlink:href="#DejaVuSerif-6e" x="83.300781"/>
      <use xlink:href="#DejaVuSerif-28" x="147.705078"/>
      <use xlink:href="#DejaVuSerif-78" x="186.71875"/>
      <use xlink:href="#DejaVuSerif-20" x="243.115234"/>
      <use xlink:href="#DejaVuSerif-2b" x="274.902344"/>
      <use xlink:href="#DejaVuSerif-20" x="358.691406"/>
      <use xlink:href="#DejaVuSerif-30" x="390.478516"/>
      <use xlink:href="#DejaVuSerif-2e" x="454.101562"/>
      <use xlink:href="#DejaVuSerif-36" x="485.888672"/>
      <use xlink:href="#DejaVuSerif-33" x="549.511719"/>
      <use xlink:href="#DejaVuSerif-29" x="613.134766"/>
     </g>
    </g>
    <g id="line2d_32">
     <path d="M 312.505938 69.248562 
L 322.505938 69.248562 
L 332.505938 69.248562 
" style="fill: none; stroke: #d62828; stroke-width: 1.5; stroke-linecap: square"/>
    </g>
    <g id="text_16">
     <!-- cos(x) * 0.11 -->
     <g transform="translate(340.505938 72.748562) scale(0.1 -0.1)">
      <defs>
       <path id="DejaVuSerif-63" d="M 3291 997 
Q 3169 466 2822 187 
Q 2475 -91 1925 -91 
Q 1200 -91 759 389 
Q 319 869 319 1663 
Q 319 2459 759 2936 
Q 1200 3413 1925 3413 
Q 2241 3413 2553 3339 
Q 2866 3266 3181 3116 
L 3181 2266 
L 2847 2266 
Q 2781 2703 2561 2903 
Q 2341 3103 1931 3103 
Q 1466 3103 1228 2742 
Q 991 2381 991 1663 
Q 991 944 1227 581 
Q 1463 219 1931 219 
Q 2303 219 2525 412 
Q 2747 606 2828 997 
L 3291 997 
z
" transform="scale(0.015625)"/>
       <path id="DejaVuSerif-6f" d="M 1925 219 
Q 2388 219 2623 584 
Q 2859 950 2859 1663 
Q 2859 2375 2623 2739 
Q 2388 3103 1925 3103 
Q 1463 3103 1227 2739 
Q 991 2375 991 1663 
Q 991 950 1228 584 
Q 1466 219 1925 219 
z
M 1925 -91 
Q 1200 -91 759 389 
Q 319 869 319 1663 
Q 319 2456 758 2934 
Q 1197 3413 1925 3413 
Q 2653 3413 3092 2934 
Q 3531 2456 3531 1663 
Q 3531 869 3092 389 
Q 2653 -91 1925 -91 
z
" transform="scale(0.015625)"/>
       <path id="DejaVuSerif-2a" d="M 3097 3866 
L 1875 3297 
L 3097 2719 
L 2859 2350 
L 1772 3028 
L 1813 1838 
L 1388 1838 
L 1428 3028 
L 341 2350 
L 103 2719 
L 1325 3291 
L 103 3866 
L 341 4238 
L 1428 3559 
L 1388 4750 
L 1813 4750 
L 1772 3559 
L 2859 4238 
L 3097 3866 
z
" transform="scale(0.015625)"/>
      </defs>
      <use xlink:href="#DejaVuSerif-63"/>
      <use xlink:href="#DejaVuSerif-6f" x="56.005859"/>
      <use xlink:href="#DejaVuSerif-73" x="116.210938"/>
      <use xlink:href="#DejaVuSerif-28" x="167.529297"/>
      <use xlink:href="#DejaVuSerif-78" x="206.542969"/>
      <use xlink:href="#DejaVuSerif-29" x="262.939453"/>
      <use xlink:href="#DejaVuSerif-20" x="301.953125"/>
      <use xlink:href="#DejaVuSerif-2a" x="333.740234"/>
      <use xlink:href="#DejaVuSerif-20" x="383.740234"/>
      <use xlink:href="#DejaVuSerif-30" x="415.527344"/>
      <use xlink:href="#DejaVuSerif-2e" x="479.150391"/>
      <use xlink:href="#DejaVuSerif-31" x="510.9375"/>
      <use xlink:href="#DejaVuSerif-31" x="574.560547"/>
     </g>
    </g>
   </g>
  </g>
 </g>
 <defs>
  <clipPath id="p89bc73a37a">
   <rect x="57.6" y="41.472" width="357.12" height="266.112"/>
  </clipPath>
 </defs>
</svg>
